<svg width="1224" height="723" viewBox="0 0 1224 723" fill="none" xmlns="http://www.w3.org/2000/svg">
<path d="M765.892 293.699C766.239 293.883 766.585 294.067 766.942 294.256C770.535 296.34 773.94 299.243 776.326 302.652C776.712 302.231 777.098 301.811 777.495 301.377C783.739 294.745 790.721 290.406 800.052 290.116C809.788 289.968 818.692 291.313 826.293 297.896C834.408 305.884 837.877 315.906 838.043 327.178C838.057 329.494 838.048 331.809 838.035 334.125C838.033 335.13 838.032 336.135 838.031 337.14C838.027 339.761 838.017 342.383 838.006 345.005C837.996 347.689 837.991 350.374 837.986 353.058C837.976 358.308 837.958 363.558 837.938 368.808C831.707 368.808 825.476 368.808 819.057 368.808C819.05 367.45 819.042 366.093 819.035 364.694C819.01 360.193 818.977 355.692 818.94 351.192C818.918 348.465 818.898 345.738 818.885 343.01C818.872 340.375 818.852 337.741 818.827 335.106C818.819 334.104 818.813 333.102 818.81 332.099C818.785 324.91 818.705 317.3 813.681 311.569C809.902 308.031 806.353 307.382 801.316 307.416C798.428 307.513 796.147 307.973 793.717 309.616C793.403 309.821 793.089 310.026 792.766 310.238C788.601 313.36 787.076 318.598 786.264 323.543C785.98 327.029 786.02 330.533 786.009 334.028C786.001 335.034 785.992 336.041 785.982 337.047C785.959 339.677 785.944 342.306 785.931 344.936C785.916 347.627 785.893 350.318 785.871 353.009C785.828 358.276 785.795 363.542 785.767 368.808C779.536 368.808 773.305 368.808 766.886 368.808C766.879 367.438 766.871 366.068 766.864 364.656C766.839 360.112 766.806 355.567 766.769 351.023C766.747 348.27 766.727 345.516 766.714 342.763C766.701 340.102 766.681 337.442 766.656 334.781C766.648 333.769 766.642 332.758 766.639 331.747C766.602 320.667 766.602 320.667 761.42 311.108C756.725 307.435 752.246 307.312 746.514 307.626C743.244 308.255 740.263 310.044 738.235 312.68C734.176 318.994 734.357 325.563 734.335 332.814C734.327 333.854 734.318 334.895 734.308 335.935C734.285 338.657 734.27 341.379 734.257 344.102C734.242 346.886 734.219 349.67 734.196 352.455C734.154 357.906 734.121 363.357 734.093 368.808C727.862 368.808 721.631 368.808 715.212 368.808C715.178 362.996 715.151 357.184 715.134 351.372C715.127 348.672 715.116 345.973 715.099 343.273C715.083 340.661 715.074 338.048 715.07 335.436C715.068 334.446 715.062 333.457 715.054 332.468C714.956 320.059 716.479 308.504 725.227 299.001C735.671 289.133 753.232 286.959 765.892 293.699Z" fill="#010101"/>
<path d="M127.79 355.65C128.468 355.641 129.145 355.632 129.843 355.623C132.109 355.6 134.373 355.618 136.639 355.636C138.265 355.628 139.891 355.618 141.517 355.606C145.472 355.582 149.427 355.586 153.383 355.602C156.599 355.615 159.814 355.617 163.03 355.611C163.717 355.609 163.717 355.609 164.418 355.608C165.349 355.606 166.279 355.604 167.21 355.602C175.933 355.586 184.655 355.605 193.378 355.636C200.857 355.662 208.336 355.657 215.816 355.631C224.507 355.6 233.198 355.588 241.889 355.605C242.816 355.607 243.743 355.609 244.671 355.611C245.127 355.612 245.583 355.613 246.053 355.613C249.264 355.618 252.474 355.61 255.684 355.596C260.008 355.579 264.332 355.591 268.656 355.625C270.242 355.632 271.829 355.63 273.415 355.617C275.583 355.602 277.747 355.621 279.915 355.65C280.542 355.637 281.169 355.624 281.815 355.611C284.513 355.68 286.162 355.872 288.303 357.594C294.997 364.854 295.497 373.025 295.199 382.425C294.839 388.897 292.099 396.507 287.435 401.169C286.218 401.334 286.218 401.334 284.701 401.342C284.123 401.349 283.546 401.355 282.951 401.361C282.313 401.361 281.674 401.361 281.017 401.362C280.342 401.367 279.667 401.372 278.971 401.377C276.694 401.393 274.417 401.399 272.14 401.406C270.514 401.415 268.888 401.424 267.261 401.434C262.369 401.462 257.477 401.478 252.585 401.492C250.743 401.498 248.901 401.504 247.06 401.51C238.942 401.537 230.825 401.56 222.708 401.572C220.72 401.575 218.733 401.579 216.746 401.582C216.005 401.583 216.005 401.583 215.249 401.584C207.248 401.598 199.247 401.635 191.246 401.682C183.033 401.731 174.821 401.757 166.608 401.763C161.996 401.766 157.384 401.779 152.772 401.817C148.434 401.852 144.096 401.858 139.757 401.844C138.164 401.843 136.571 401.853 134.978 401.873C132.803 401.898 130.631 401.889 128.456 401.87C127.825 401.886 127.194 401.902 126.544 401.918C123.872 401.862 122.276 401.755 120.255 399.916C118.149 397.267 116.527 394.538 115.31 391.372C115.061 390.741 114.812 390.11 114.555 389.46C111.794 381.582 112.409 371.876 115.372 364.167C118.689 358.259 120.764 355.506 127.79 355.65Z" fill="#A67B5B"/>
<path d="M123.736 239.76C124.316 239.754 124.895 239.748 125.493 239.742C126.133 239.741 126.774 239.741 127.434 239.741C128.112 239.736 128.79 239.731 129.488 239.725C131.774 239.71 134.059 239.703 136.345 239.697C137.978 239.688 139.611 239.678 141.243 239.668C146.154 239.641 151.065 239.624 155.976 239.61C157.825 239.605 159.674 239.599 161.523 239.593C169.672 239.566 177.821 239.543 185.969 239.53C187.964 239.527 189.96 239.524 191.955 239.521C192.698 239.52 192.698 239.52 193.457 239.518C201.489 239.505 209.521 239.467 217.553 239.42C225.798 239.372 234.042 239.345 242.287 239.34C246.917 239.336 251.546 239.323 256.176 239.286C260.532 239.251 264.886 239.245 269.242 239.259C270.841 239.259 272.441 239.25 274.04 239.23C276.223 239.204 278.403 239.214 280.586 239.233C281.537 239.209 281.537 239.209 282.507 239.184C285.192 239.24 286.79 239.344 288.819 241.197C290.744 243.625 292.38 246.124 293.437 249.051C293.627 249.556 293.817 250.061 294.012 250.581C296.777 259.553 295.77 270.323 291.49 278.581C289.063 283.095 289.063 283.095 288.076 284.081C287.185 284.148 286.291 284.17 285.398 284.174C284.817 284.179 284.236 284.183 283.638 284.188C282.669 284.19 282.669 284.19 281.681 284.193C281.001 284.197 280.321 284.201 279.62 284.205C277.322 284.218 275.024 284.227 272.726 284.235C271.086 284.243 269.446 284.252 267.806 284.26C262.404 284.287 257.001 284.307 251.598 284.324C251.139 284.325 250.68 284.327 250.207 284.328C241.094 284.357 231.98 284.382 222.867 284.399C220.862 284.403 218.857 284.407 216.852 284.411C216.354 284.412 215.856 284.413 215.342 284.414C207.27 284.43 199.199 284.467 191.127 284.511C182.844 284.556 174.561 284.582 166.278 284.589C161.626 284.594 156.974 284.607 152.322 284.642C147.945 284.675 143.569 284.682 139.193 284.672C137.585 284.672 135.977 284.682 134.369 284.7C132.176 284.724 129.986 284.717 127.793 284.701C127.154 284.716 126.516 284.73 125.858 284.745C121.644 284.669 121.644 284.669 119.757 282.968C117.948 280.607 116.541 278.049 115.35 275.324C115.095 274.754 114.84 274.184 114.578 273.597C111.799 266.194 112.372 256.079 115.05 248.729C119.226 239.784 119.226 239.784 123.736 239.76Z" fill="#A67B5B"/>
<path d="M127.839 122.737C128.522 122.727 129.204 122.716 129.908 122.705C132.191 122.676 134.473 122.688 136.757 122.7C138.395 122.688 140.034 122.674 141.672 122.657C145.659 122.624 149.644 122.618 153.631 122.625C156.872 122.631 160.112 122.627 163.353 122.616C164.045 122.613 164.045 122.613 164.752 122.611C165.69 122.607 166.628 122.604 167.565 122.601C176.356 122.571 185.146 122.579 193.937 122.598C201.975 122.614 210.012 122.584 218.049 122.532C226.308 122.48 234.566 122.458 242.825 122.469C247.459 122.475 252.093 122.469 256.728 122.43C261.086 122.395 265.442 122.403 269.8 122.44C271.399 122.447 272.998 122.439 274.597 122.417C286.371 122.263 286.371 122.263 289.216 124.304C291.254 126.505 292.254 128.965 293.197 131.804C293.553 132.621 293.553 132.621 293.916 133.454C297.28 141.299 295.454 152.298 292.557 159.956C289.723 165.987 289.723 165.987 288.075 167.634C287.189 167.7 286.299 167.722 285.41 167.727C284.542 167.733 284.542 167.733 283.657 167.74C283.015 167.742 282.372 167.743 281.71 167.745C281.033 167.749 280.356 167.753 279.658 167.758C277.37 167.771 275.083 167.779 272.795 167.787C271.162 167.796 269.53 167.804 267.897 167.813C262.518 167.839 257.14 167.859 251.761 167.876C251.304 167.878 250.847 167.879 250.376 167.881C241.301 167.91 232.225 167.934 223.15 167.951C221.154 167.955 219.157 167.959 217.161 167.963C216.665 167.964 216.168 167.965 215.657 167.966C207.621 167.982 199.585 168.019 191.549 168.063C183.301 168.108 175.054 168.134 166.806 168.141C162.174 168.146 157.543 168.159 152.911 168.194C148.553 168.228 144.195 168.235 139.837 168.224C138.237 168.225 136.636 168.234 135.036 168.252C132.852 168.276 130.67 168.269 128.485 168.253C127.851 168.268 127.217 168.282 126.564 168.297C124.007 168.251 122.311 168.171 120.266 166.552C113.322 158.869 112.655 149.054 113.157 139.156C113.993 130.423 118.65 122.576 127.839 122.737Z" fill="#A67B5B"/>
<path d="M123.726 472.658C124.304 472.652 124.881 472.646 125.476 472.64C126.114 472.64 126.753 472.641 127.41 472.641C128.085 472.636 128.76 472.632 129.456 472.627C131.733 472.613 134.009 472.608 136.286 472.603C137.913 472.595 139.539 472.586 141.166 472.577C146.058 472.553 150.95 472.539 155.842 472.528C158.145 472.522 160.448 472.515 162.751 472.509C170.407 472.487 178.063 472.468 185.719 472.459C187.706 472.457 189.694 472.454 191.681 472.452C192.175 472.451 192.669 472.45 193.178 472.45C201.179 472.439 209.18 472.407 217.181 472.365C225.393 472.323 233.606 472.3 241.819 472.296C246.431 472.293 251.043 472.282 255.654 472.249C259.993 472.218 264.331 472.214 268.67 472.227C270.263 472.228 271.856 472.219 273.449 472.202C275.624 472.179 277.796 472.188 279.97 472.205C280.602 472.191 281.233 472.177 281.883 472.163C284.439 472.211 286.122 472.291 288.159 473.919C294.531 481.005 295.67 488.956 295.242 498.16C294.798 503.639 293.034 508.426 290.578 513.289C290.23 513.98 289.882 514.671 289.523 515.383C289.123 516.172 289.123 516.172 288.716 516.977C267.507 517.094 246.297 517.184 225.088 517.238C222.584 517.245 220.08 517.251 217.576 517.258C217.077 517.26 216.579 517.261 216.065 517.262C207.994 517.285 199.923 517.325 191.851 517.372C183.569 517.42 175.287 517.448 167.005 517.459C161.894 517.466 156.784 517.488 151.673 517.529C147.754 517.56 143.836 517.563 139.917 517.556C138.309 517.557 136.702 517.568 135.094 517.587C132.9 517.613 130.708 517.607 128.514 517.593C127.877 517.608 127.24 517.622 126.584 517.638C124.013 517.593 122.314 517.522 120.264 515.885C113.289 508.116 112.743 499.09 113.185 489.076C113.623 483.713 117.474 472.686 123.726 472.658Z" fill="#A67B5B"/>
<path d="M422.885 414.307C421.811 417.155 420.366 419.786 418.936 422.465C418.454 423.369 417.979 424.275 417.503 425.181C417.047 426.036 417.047 426.036 416.583 426.908C416.306 427.429 416.029 427.951 415.744 428.488C414.954 429.751 414.954 429.751 413.467 430.747C413.035 430.458 412.603 430.169 412.158 429.872C401.704 422.948 391.315 419.185 378.671 421.013C374.797 422.054 371.062 424.343 368.859 427.758C367.949 430.501 367.848 433.638 368.742 436.405C372.214 442.757 381.879 444.843 388.251 446.752C388.797 446.918 389.344 447.084 389.906 447.256C391.934 447.872 393.962 448.488 395.997 449.078C398.576 449.832 401.039 450.698 403.492 451.796C403.829 451.946 404.166 452.096 404.513 452.25C413.188 456.189 419.491 461.4 422.92 470.519C425.033 478.252 424.175 488.504 420.406 495.512C420.186 495.97 419.966 496.428 419.738 496.899C415.832 504.305 408.948 508.657 401.324 511.392C386.261 515.985 369.355 513.853 355.507 506.503C352.54 504.879 349.748 503.034 347.05 500.992C348.048 497.754 349.595 494.931 351.201 491.962C351.487 491.422 351.773 490.882 352.068 490.326C352.348 489.806 352.628 489.287 352.916 488.751C353.17 488.28 353.423 487.808 353.684 487.323C354.49 486.038 355.359 485.08 356.467 484.054C357.126 484.524 357.126 484.524 357.797 485.003C367.854 492.041 378.209 496.333 390.667 495.014C394.659 494.149 399.276 492.554 401.734 489.109C403.655 485.396 404.349 482.06 403.233 477.863C400.776 472.429 395.209 470.462 389.99 468.472C386.214 467.149 382.398 466.135 378.524 465.154C373.955 463.988 369.675 462.623 365.389 460.639C364.909 460.421 364.429 460.203 363.935 459.979C357.052 456.554 351.52 450.548 349.032 443.202C348.44 440.102 348.409 437.071 348.382 433.923C348.367 433.369 348.353 432.815 348.338 432.244C348.28 424.49 351.413 418.143 356.628 412.54C374.795 395.8 404.727 400.399 422.885 414.307Z" fill="#010101"/>
<path d="M438.05 115.808C444.142 115.808 450.234 115.808 456.51 115.808C456.675 128.62 456.839 141.433 457.009 154.633C459.726 152.908 459.726 152.908 462.497 151.149C470.727 147.18 481.833 146.71 490.509 149.526C499.014 152.55 505.784 157.789 509.832 165.93C510.148 166.601 510.46 167.274 510.768 167.948C510.909 168.25 511.049 168.552 511.194 168.863C514.176 175.764 514.09 182.796 514.032 190.157C514.03 191.218 514.027 192.279 514.026 193.341C514.02 196.112 514.006 198.882 513.989 201.653C513.974 204.489 513.967 207.326 513.959 210.162C513.943 215.711 513.917 221.259 513.886 226.808C507.794 226.808 501.703 226.808 495.426 226.808C495.407 223.924 495.389 221.04 495.37 218.068C495.354 216.224 495.339 214.38 495.322 212.535C495.295 209.618 495.269 206.701 495.253 203.784C495.24 201.428 495.22 199.072 495.195 196.716C495.187 195.824 495.181 194.932 495.178 194.04C495.143 185.061 494.905 176.44 488.515 169.556C486.978 168.142 485.403 167.294 483.452 166.579C483.009 166.402 482.566 166.225 482.109 166.043C480.054 165.471 478.184 165.413 476.062 165.428C475.662 165.431 475.262 165.434 474.851 165.437C469.462 165.547 466.094 167.215 462.152 170.839C458.045 175.122 456.865 181.74 456.85 187.478C456.842 188.12 456.842 188.12 456.835 188.775C456.819 190.175 456.811 191.576 456.802 192.976C456.793 193.952 456.783 194.929 456.773 195.905C456.748 198.465 456.728 201.024 456.709 203.584C456.689 206.2 456.664 208.816 456.639 211.432C456.59 216.557 456.549 221.683 456.51 226.808C450.418 226.808 444.326 226.808 438.05 226.808C438.05 190.178 438.05 153.548 438.05 115.808Z" fill="black"/>
<path d="M345.05 118.808C372.44 118.808 399.83 118.808 428.05 118.808C428.05 124.885 428.05 130.962 428.05 137.223C417.655 137.223 407.26 137.223 396.55 137.223C396.55 166.786 396.55 196.349 396.55 226.808C389.95 226.808 383.35 226.808 376.55 226.808C376.55 197.245 376.55 167.682 376.55 137.223C366.155 137.223 355.76 137.223 345.05 137.223C345.05 131.146 345.05 125.069 345.05 118.808Z" fill="black"/>
<path d="M564.686 257.854C568.826 257.884 568.826 257.884 573.05 257.916C573.05 263.495 573.05 269.075 573.05 274.823C567.66 275.01 567.66 275.01 565.993 275.061C559.385 275.272 559.385 275.272 553.719 278.304C550.396 282.708 550.646 285.775 550.25 291.73C557.283 291.73 564.316 291.73 571.563 291.73C571.563 296.818 571.563 301.905 571.563 307.146C564.53 307.146 557.496 307.146 550.25 307.146C550.25 327.494 550.25 347.843 550.25 368.808C544.034 368.808 537.819 368.808 531.415 368.808C531.415 348.624 531.415 328.439 531.415 307.643C526.345 307.643 521.274 307.643 516.05 307.643C516.05 302.392 516.05 297.141 516.05 291.73C521.12 291.73 526.191 291.73 531.415 291.73C531.415 289.269 531.415 286.807 531.415 284.271C532.248 276.223 534.949 268.66 541.328 263.386C544.287 261.29 547.26 259.859 550.745 258.91C551.071 258.819 551.396 258.728 551.732 258.634C556.007 257.611 560.32 257.808 564.686 257.854Z" fill="#020202"/>
<path d="M444.55 416.808C450.82 416.808 457.09 416.808 463.55 416.808C463.55 422.839 463.55 428.87 463.55 435.083C471.14 435.083 478.73 435.083 486.55 435.083C486.55 440.136 486.55 445.189 486.55 450.394C478.96 450.394 471.37 450.394 463.55 450.394C463.581 456.507 463.581 456.507 463.63 462.619C463.654 465.115 463.676 467.611 463.685 470.107C463.693 472.122 463.71 474.136 463.734 476.15C463.741 476.915 463.745 477.681 463.746 478.446C463.697 485.383 463.697 485.383 466.92 491.352C471.214 495.287 476.769 494.925 482.3 495.125C484.197 495.196 486.095 495.267 488.05 495.341C488.05 500.72 488.05 506.098 488.05 511.64C485.57 511.686 483.092 511.725 480.613 511.749C479.773 511.758 478.934 511.772 478.095 511.789C468.807 511.976 459.436 510.879 452.331 504.324C445.441 496.858 444.383 487.421 444.452 477.755C444.454 476.976 444.455 476.198 444.456 475.419C444.46 473.389 444.47 471.358 444.481 469.327C444.493 466.881 444.498 464.435 444.504 461.988C444.513 458.288 444.532 454.588 444.55 450.888C439.435 450.888 434.32 450.888 429.05 450.888C429.05 445.673 429.05 440.457 429.05 435.083C434.165 435.083 439.28 435.083 444.55 435.083C444.55 429.052 444.55 423.022 444.55 416.808Z" fill="#020202"/>
<path d="M627.05 433.839C627.05 439.376 627.05 444.912 627.05 450.617C624.555 450.78 622.06 450.943 619.489 451.111C614.992 452.181 610.953 453.255 608.154 457.067C605.715 461.109 604.646 465.066 604.654 469.736C604.648 470.193 604.643 470.651 604.638 471.123C604.623 472.621 604.618 474.119 604.614 475.617C604.605 476.661 604.596 477.706 604.586 478.751C604.562 481.489 604.547 484.227 604.534 486.965C604.519 489.763 604.495 492.562 604.473 495.361C604.429 500.843 604.396 506.326 604.367 511.808C598.047 511.808 591.726 511.808 585.213 511.808C585.179 505.631 585.151 499.453 585.135 493.275C585.127 490.406 585.117 487.537 585.099 484.668C585.083 481.894 585.074 479.12 585.07 476.345C585.067 475.292 585.062 474.239 585.053 473.186C584.968 461.723 586.334 451.33 594.696 442.598C603.676 434.211 615.367 433.636 627.05 433.839Z" fill="#020202"/>
<path d="M976.05 290.839C976.05 296.376 976.05 301.912 976.05 307.617C973.614 307.78 971.178 307.943 968.669 308.111C964.279 309.181 960.336 310.255 957.604 314.067C955.223 318.109 954.179 322.066 954.187 326.736C954.182 327.193 954.177 327.651 954.172 328.123C954.157 329.621 954.152 331.119 954.148 332.617C954.139 333.661 954.13 334.706 954.121 335.751C954.098 338.489 954.083 341.227 954.07 343.965C954.055 346.763 954.032 349.562 954.01 352.361C953.968 357.843 953.936 363.326 953.907 368.808C947.737 368.808 941.567 368.808 935.209 368.808C935.176 362.631 935.149 356.453 935.133 350.275C935.125 347.406 935.115 344.537 935.098 341.668C935.082 338.894 935.073 336.12 935.069 333.345C935.067 332.292 935.061 331.239 935.053 330.186C934.97 318.723 936.303 308.33 944.466 299.598C953.233 291.211 964.645 290.636 976.05 290.839Z" fill="#020202"/>
<path d="M706.05 290.839C706.05 296.376 706.05 301.912 706.05 307.617C703.614 307.78 701.178 307.943 698.669 308.111C694.279 309.181 690.336 310.255 687.604 314.067C685.223 318.109 684.179 322.066 684.187 326.736C684.182 327.193 684.177 327.651 684.172 328.123C684.157 329.621 684.152 331.119 684.148 332.617C684.139 333.661 684.13 334.706 684.121 335.751C684.098 338.489 684.083 341.227 684.07 343.965C684.055 346.763 684.032 349.562 684.01 352.361C683.968 357.843 683.936 363.326 683.907 368.808C677.737 368.808 671.567 368.808 665.209 368.808C665.176 362.631 665.149 356.453 665.133 350.275C665.125 347.406 665.115 344.537 665.098 341.668C665.082 338.894 665.073 336.12 665.069 333.345C665.067 332.292 665.061 331.239 665.053 330.186C664.97 318.723 666.303 308.33 674.466 299.598C683.233 291.211 694.645 290.636 706.05 290.839Z" fill="#020202"/>
<path d="M155.562 415.69C156.122 415.678 156.682 415.666 157.258 415.653C162.407 415.545 167.557 415.483 172.707 415.435C176.157 415.402 179.605 415.354 183.054 415.271C186.405 415.19 189.754 415.148 193.106 415.132C194.374 415.119 195.642 415.093 196.909 415.054C204.557 414.824 209.519 415.44 215.336 420.685C216.028 421.344 216.715 422.01 217.393 422.684C218.539 423.797 219.776 424.744 221.071 425.677C221.628 426.09 221.628 426.09 222.197 426.512C222.561 426.779 222.924 427.046 223.299 427.322C226.989 430.063 230.638 432.852 234.262 435.679C238.039 438.625 241.822 441.564 245.625 444.477C246.287 444.985 246.287 444.985 246.963 445.504C249.209 447.218 251.47 448.904 253.762 450.555C254.21 450.879 254.658 451.203 255.12 451.536C255.973 452.149 256.829 452.758 257.688 453.363C258.664 454.063 259.61 454.804 260.548 455.554C260.548 455.976 260.548 456.399 260.548 456.834C248.832 457.39 237.112 457.741 225.383 457.857C222.764 457.884 220.146 457.923 217.527 457.991C214.939 458.058 212.352 458.093 209.764 458.105C208.795 458.115 207.826 458.136 206.857 458.17C199.032 458.425 195.07 456.179 189.49 451.075C188.405 450.229 187.313 449.392 186.209 448.571C185.443 447.988 185.443 447.988 184.662 447.394C184.143 446.999 183.623 446.604 183.088 446.197C181.921 445.309 180.754 444.42 179.587 443.532C179.001 443.086 178.414 442.64 177.809 442.18C175.536 440.45 173.264 438.719 170.991 436.989C169.883 436.145 168.775 435.301 167.667 434.458C164.743 432.233 161.822 430.004 158.904 427.772C158.298 427.308 157.691 426.845 157.066 426.367C155.908 425.482 154.75 424.595 153.593 423.708C151.387 422.023 149.202 420.362 146.856 418.874C146.349 418.521 145.841 418.168 145.318 417.804C145.318 417.382 145.318 416.96 145.318 416.525C148.749 415.963 152.089 415.756 155.562 415.69Z" fill="#C19A6B"/>
<path d="M155.42 299.243C155.972 299.23 156.525 299.218 157.094 299.205C162.185 299.097 167.278 299.035 172.37 298.987C175.782 298.954 179.192 298.906 182.603 298.823C185.916 298.742 189.227 298.7 192.541 298.684C193.794 298.671 195.047 298.646 196.3 298.606C205.38 298.33 210.555 300.044 217.291 306.212C218.644 307.426 220.093 308.481 221.575 309.532C222.035 309.869 222.495 310.205 222.969 310.552C223.421 310.883 223.873 311.213 224.338 311.554C229.649 315.452 234.896 319.427 240.116 323.446C241.261 324.327 242.408 325.207 243.556 326.085C247.628 329.203 251.674 332.354 255.696 335.537C257.283 336.79 258.864 337.984 260.548 339.106C260.548 339.528 260.548 339.951 260.548 340.386C249.726 341.07 238.92 341.126 228.082 341.109C225.643 341.105 223.205 341.107 220.767 341.111C218.862 341.114 216.957 341.113 215.053 341.111C214.153 341.111 213.254 341.111 212.355 341.113C198.871 341.13 198.871 341.13 194.971 338.306C194.318 337.842 193.665 337.378 192.993 336.899C192.639 336.639 192.285 336.379 191.92 336.111C190.678 335.2 189.423 334.307 188.167 333.415C185.175 331.285 182.208 329.122 179.247 326.949C178.721 326.564 178.195 326.178 177.653 325.78C170.986 320.872 164.482 315.818 158.126 310.514C155.236 308.109 152.275 305.798 149.287 303.515C146.666 301.492 146.666 301.492 145.958 300.077C149.132 299.454 152.199 299.304 155.42 299.243Z" fill="#C19A6B"/>
<path d="M179.7 182.72C182.822 182.603 185.944 182.525 189.067 182.454C190.585 182.412 192.103 182.353 193.62 182.277C203.755 181.783 209.979 182.929 217.745 189.704C218.165 190.087 218.584 190.47 219.017 190.865C220.699 192.381 222.483 193.714 224.298 195.066C224.943 195.565 225.587 196.064 226.251 196.578C229.255 198.903 232.279 201.202 235.301 203.504C235.889 203.951 236.476 204.398 237.081 204.859C240.041 207.111 243.005 209.355 245.984 211.581C249.194 213.983 252.394 216.396 255.587 218.819C256.076 219.189 256.566 219.558 257.07 219.938C257.521 220.282 257.973 220.625 258.437 220.979C259.048 221.442 259.048 221.442 259.671 221.914C259.96 222.159 260.25 222.405 260.548 222.658C260.548 222.87 260.548 223.081 260.548 223.298C248.04 224.443 235.574 224.719 223.018 224.738C222.277 224.741 221.537 224.744 220.773 224.748C199.639 224.822 199.639 224.822 193.49 220.499C193.068 220.218 192.646 219.938 192.21 219.649C190.865 218.748 189.537 217.826 188.209 216.9C187.298 216.28 186.387 215.66 185.476 215.04C180.133 211.37 175.02 207.463 169.992 203.376C167.892 201.671 165.755 200.023 163.603 198.385C160.352 195.897 157.144 193.36 153.96 190.787C153.531 190.442 153.101 190.097 152.659 189.741C152.25 189.409 151.841 189.077 151.419 188.735C150.88 188.299 150.88 188.299 150.33 187.853C148.801 186.515 147.384 185.076 145.958 183.629C152.822 183.418 159.685 183.255 166.551 183.131C170.937 183.046 175.317 182.899 179.7 182.72Z" fill="#C19A6B"/>
<path d="M506.884 444.232C520.597 429.027 546.168 429.848 561.486 441.688C568.742 447.925 573.815 457.04 574.61 466.667C575.407 482.762 575.408 482.763 572.129 490.176C571.991 490.498 571.852 490.82 571.709 491.152C569.514 496.112 566.529 499.904 562.696 503.681C562.382 504.013 562.068 504.347 561.744 504.689C554.63 511.715 543.745 513.819 534.201 513.808C523.789 513.682 514.634 509.961 506.973 502.837C498.704 493.961 495.831 482.864 496.063 470.991C496.161 467.978 496.432 465.092 497.168 462.165C497.259 461.763 497.35 461.361 497.443 460.946C498.975 455.001 502.051 449.702 506.104 445.159C506.361 444.854 506.619 444.547 506.884 444.232ZM547.518 453.309C538.516 447.919 528.41 448.723 520.698 455.927C516.649 460.271 515.02 465.567 515.051 471.458C515.061 471.967 515.071 472.46 515.081 472.954C515.086 473.952 515.094 474.951 515.104 475.949C515.274 482.064 517.196 487.274 521.596 491.537C526.581 495.784 531.43 496.967 537.781 496.791C543.73 496.41 547.901 493.277 551.727 488.878C556.659 482.158 556.497 473.723 555.462 465.801C554.52 460.843 551.599 456.199 547.518 453.309Z" fill="#010101"/>
<path d="M585.884 301.232C599.597 286.027 625.168 286.848 640.486 298.688C647.742 304.925 652.815 314.04 653.61 323.667C654.407 339.762 654.408 339.763 651.129 347.176C650.991 347.498 650.852 347.82 650.709 348.152C648.514 353.112 645.529 356.904 641.696 360.681C641.382 361.013 641.068 361.347 640.744 361.689C633.63 368.715 622.745 370.819 613.201 370.808C602.789 370.682 593.634 366.961 585.973 359.837C577.704 350.961 574.831 339.864 575.063 327.991C575.161 324.978 575.432 322.092 576.168 319.165C576.259 318.763 576.35 318.361 576.443 317.946C577.975 312.001 581.051 306.702 585.104 302.159C585.361 301.854 585.619 301.547 585.884 301.232ZM626.518 310.309C617.516 304.919 607.41 305.723 599.698 312.927C595.649 317.271 594.02 322.567 594.051 328.458C594.061 328.967 594.071 329.46 594.081 329.954C594.086 330.952 594.094 331.951 594.104 332.949C594.274 339.064 596.196 344.274 600.596 348.537C605.581 352.784 610.43 353.967 616.781 353.791C622.73 353.41 626.901 350.277 630.727 345.878C635.659 339.158 635.497 330.723 634.462 322.801C633.52 317.843 630.599 313.199 626.518 310.309Z" fill="#010101"/>
<path d="M350.05 260.808C407.67 260.808 407.67 260.808 417.725 269.764C423.78 276.063 425.88 284.1 425.766 292.643C425.538 300.845 423.56 309.154 417.616 315.151C414.434 317.736 411.123 319.447 407.351 321.011C406.921 321.202 406.491 321.393 406.049 321.59C404.881 322.006 404.881 322.006 402.905 322.006C405.851 326.93 408.851 331.797 412.04 336.565C416.032 342.538 419.836 348.641 423.683 354.709C425.221 357.134 426.763 359.556 428.329 361.963C428.584 362.356 428.84 362.749 429.104 363.154C429.574 363.877 430.045 364.598 430.52 365.317C432.05 367.67 432.05 367.67 432.05 368.775C413.233 370.26 413.232 370.26 408.808 368.008C406.688 365.975 405.791 363.42 404.888 360.666C404.042 358.396 402.663 356.516 401.3 354.533C400.759 353.705 400.222 352.874 399.687 352.042C399.271 351.398 399.271 351.398 398.847 350.741C396.887 347.694 394.952 344.631 393.012 341.571C390.578 337.737 388.124 333.915 385.651 330.105C385.407 329.729 385.164 329.352 384.912 328.964C384.701 328.639 384.49 328.315 384.272 327.98C383.545 326.832 382.854 325.662 382.158 324.494C378.083 324.33 374.007 324.165 369.809 323.996V368.775H350.05V260.808ZM383.131 277.822C381.994 277.841 380.891 277.859 379.788 277.877C376.137 277.919 372.593 277.96 369.05 278.001V307.708C372.764 307.729 376.369 307.75 379.974 307.771C381.582 307.783 383.191 307.797 384.8 307.802C385.248 307.803 385.684 307.804 386.119 307.805C391.914 307.868 397.361 307.012 401.76 302.912C403.944 299.517 404.93 296.68 405.05 292.606C404.902 288.163 404.063 284.986 400.892 281.776C395.653 277.72 389.466 277.761 383.131 277.822Z" fill="#010101"/>
<path d="M655.455 435.806C663.956 432.531 675.523 431.577 684.146 434.78C684.637 434.955 685.128 435.131 685.635 435.311C694.154 438.594 700.391 444.042 704.559 452.198C708.36 461.082 708.043 468.462 708.043 478.573H651.783C654.211 486.663 657.168 491.055 664.431 495.163C670.419 497.931 677.455 497.813 683.614 495.625C687.054 494.206 690.352 492.814 693.138 490.299C693.862 489.667 693.862 489.667 694.601 489.023C696.371 489.613 696.542 490.007 697.494 491.551C697.752 491.964 698.011 492.378 698.276 492.804C698.542 493.24 698.807 493.676 699.081 494.125C699.347 494.553 699.613 494.98 699.887 495.421C700.397 496.244 700.904 497.07 701.407 497.898C701.932 498.753 702.479 499.595 703.033 500.43C703.208 500.772 703.383 501.113 703.562 501.465C702.898 503.458 701.628 504.045 699.922 505.104C699.453 505.4 699.453 505.4 698.975 505.701C688.199 512.388 675.519 515.569 662.889 512.82C661.319 512.422 659.789 511.938 658.256 511.418C657.732 511.243 657.208 511.068 656.669 510.888C646.503 507.078 639.679 499.29 635.197 489.615C630.81 478.765 631.097 465.854 635.509 455.079C639.432 446.012 646.51 439.685 655.455 435.806ZM680.646 450.611C675.64 448.105 668.65 448.332 663.595 450.548C658.086 453.42 654.971 457.948 653.05 463.808H690.05C689.373 459.68 687.594 456.401 684.777 453.338C684.222 452.975 683.682 452.624 683.143 452.272C682.329 451.69 681.493 451.14 680.646 450.611Z" fill="#010101"/>
<path d="M871.455 292.806C879.956 289.531 891.523 288.577 900.146 291.78C900.637 291.955 901.128 292.131 901.635 292.311C910.154 295.594 916.391 301.042 920.559 309.198C924.36 318.082 924.043 325.462 924.043 335.573H867.783C870.211 343.663 873.168 348.055 880.431 352.163C886.419 354.931 893.455 354.813 899.614 352.625C903.054 351.206 906.352 349.814 909.138 347.299C909.862 346.667 909.862 346.667 910.601 346.023C912.371 346.613 912.542 347.007 913.494 348.551C913.752 348.964 914.011 349.378 914.276 349.804C914.542 350.24 914.807 350.676 915.081 351.125C915.347 351.553 915.613 351.98 915.887 352.421C916.397 353.244 916.904 354.07 917.407 354.898C917.932 355.753 918.479 356.595 919.033 357.43C919.208 357.772 919.383 358.113 919.562 358.465C918.898 360.458 917.628 361.045 915.922 362.104C915.453 362.4 915.453 362.4 914.975 362.701C904.199 369.388 891.519 372.569 878.889 369.82C877.319 369.422 875.789 368.938 874.256 368.418C873.732 368.243 873.208 368.068 872.669 367.888C862.503 364.078 855.679 356.29 851.197 346.615C846.81 335.765 847.097 322.854 851.509 312.079C855.432 303.012 862.51 296.685 871.455 292.806ZM895.646 307.611C890.64 305.105 883.65 305.332 878.595 307.548C873.086 310.42 869.971 314.948 868.05 320.808H905.05C904.373 316.68 902.594 313.401 899.777 310.338C899.222 309.975 898.682 309.624 898.143 309.272C897.329 308.69 896.493 308.14 895.646 307.611Z" fill="#010101"/>
<path d="M457.455 292.806C465.956 289.531 477.523 288.577 486.146 291.78C486.637 291.955 487.128 292.131 487.635 292.311C496.154 295.594 502.391 301.042 506.559 309.198C510.36 318.082 510.043 325.462 510.043 335.573H453.783C456.211 343.663 459.168 348.055 466.431 352.163C472.419 354.931 479.455 354.813 485.614 352.625C489.054 351.206 492.352 349.814 495.138 347.299C495.862 346.667 495.862 346.667 496.601 346.023C498.371 346.613 498.542 347.007 499.494 348.551C499.752 348.964 500.011 349.378 500.276 349.804C500.542 350.24 500.807 350.676 501.081 351.125C501.347 351.553 501.613 351.98 501.887 352.421C502.397 353.244 502.904 354.07 503.407 354.898C503.932 355.753 504.479 356.595 505.033 357.43C505.208 357.772 505.383 358.113 505.562 358.465C504.898 360.458 503.628 361.045 501.922 362.104C501.453 362.4 501.453 362.4 500.975 362.701C490.199 369.388 477.519 372.569 464.889 369.82C463.319 369.422 461.789 368.938 460.256 368.418C459.732 368.243 459.208 368.068 458.669 367.888C448.503 364.078 441.68 356.29 437.198 346.615C432.811 335.765 433.097 322.854 437.509 312.079C441.432 303.012 448.51 296.685 457.455 292.806ZM482.392 307.611C477.25 305.105 470.072 305.332 464.88 307.548C459.223 310.42 456.023 314.948 454.05 320.808H492.05C491.355 316.68 489.527 313.401 486.635 310.338C486.064 309.975 485.51 309.624 484.956 309.272C484.12 308.69 483.262 308.14 482.392 307.611Z" fill="#010101"/>
<path d="M547.455 150.769C555.956 147.535 567.523 146.592 576.146 149.755C576.637 149.928 577.128 150.102 577.635 150.28C586.154 153.522 592.391 158.903 596.559 166.959C600.359 175.733 600.043 183.022 600.043 193.007H543.783C546.211 200.997 549.168 205.335 556.431 209.392C562.419 212.126 569.455 212.01 575.614 209.849C579.054 208.448 582.352 207.073 585.138 204.589C585.862 203.965 585.862 203.966 586.601 203.33C588.371 203.912 588.542 204.301 589.494 205.825C589.752 206.233 590.011 206.643 590.276 207.064C590.542 207.494 590.807 207.924 591.081 208.367C591.347 208.789 591.613 209.213 591.887 209.648C592.397 210.461 592.904 211.277 593.407 212.094C593.932 212.939 594.479 213.77 595.033 214.595C595.208 214.932 595.383 215.27 595.562 215.617C594.898 217.586 593.628 218.165 591.922 219.212C591.453 219.503 591.453 219.503 590.975 219.8C580.199 226.405 567.519 229.546 554.889 226.832C553.319 226.439 551.789 225.96 550.256 225.447C549.732 225.275 549.208 225.102 548.669 224.924C538.503 221.161 531.679 213.469 527.197 203.913C522.81 193.196 523.097 180.446 527.509 169.803C531.432 160.848 538.51 154.6 547.455 150.769ZM572.392 165.491C567.25 163.152 560.072 163.365 554.88 165.432C549.223 168.113 546.023 172.338 544.05 177.808H582.05C581.355 173.956 579.527 170.895 576.635 168.036C576.064 167.698 575.51 167.37 574.956 167.042C574.12 166.499 573.262 165.984 572.392 165.491Z" fill="#010101"/>
</svg>
