<svg width="2080" height="248" viewBox="0 0 2080 248" fill="none" xmlns="http://www.w3.org/2000/svg">
<path d="M1552.94 36.6875C1554.57 36.6827 1554.57 36.6827 1556.24 36.6778C1576.3 36.8089 1596.12 43.1106 1611 57C1609.49 60.3633 1607.53 62.9731 1605.19 65.8125C1601.96 69.7798 1598.92 73.803 1596 78C1592.99 76.574 1590.18 74.9075 1587.33 73.1817C1576.15 66.5109 1566.27 63.6736 1553.19 63.5C1552.21 63.4814 1551.23 63.4627 1550.22 63.4434C1544 63.4986 1539.17 64.4007 1534 68C1530.67 71.4931 1529.71 74.2917 1529.44 79C1529.64 83.0116 1530.32 85.7713 1533.29 88.7142C1541.2 94.661 1550.93 96.944 1560.31 99.5C1598.79 110.063 1598.79 110.063 1608.54 125.418C1614.54 136.71 1616.16 149.506 1612.51 161.875C1608.3 174.694 1601.95 183.085 1589.94 189.25C1573.12 197.471 1549.9 198.019 1532.14 192.188C1531.1 191.796 1530.07 191.404 1529 191C1527.98 190.649 1526.95 190.299 1525.89 189.938C1516.15 186.308 1508.24 180.218 1500 174C1501.64 169.966 1504.49 167.109 1507.44 164C1510.47 160.785 1513.44 157.61 1516 154C1519.62 154.639 1522.04 156.2 1525.06 158.25C1535.61 165.119 1544.25 168.184 1556.69 168.25C1557.64 168.271 1558.6 168.291 1559.58 168.313C1567.16 168.354 1573.49 167.238 1579.94 163.125C1583.73 159.215 1584.36 155.013 1584.56 149.688C1584.47 145.076 1584.09 142.143 1581.19 138.5C1575.24 132.827 1567.67 130.448 1559.95 128.102C1558.82 127.755 1557.68 127.409 1556.51 127.053C1553.15 126.046 1549.79 125.055 1546.43 124.07C1544.24 123.422 1542.06 122.773 1539.88 122.125C1538.79 121.812 1537.7 121.499 1536.57 121.176C1523.33 117.205 1510.89 110.993 1503.44 98.875C1500.72 92.9384 1500.44 87.3031 1500.38 80.875C1500.36 79.9571 1500.35 79.0391 1500.34 78.0933C1500.58 66.8714 1505.11 58.0962 1512.81 50.125C1524.11 39.5556 1537.85 36.4653 1552.94 36.6875Z" fill="#020202"/>
<path d="M165 39C173.91 39 182.82 39 192 39C192.33 55.5 192.66 72 193 89C196.96 86.525 196.96 86.525 201 84C206.991 81.108 213.079 80.7308 219.625 80.6875C220.329 80.6819 221.034 80.6764 221.76 80.6707C234.331 80.8423 244.623 85.9111 253.672 94.4766C266.343 108.211 267.162 122.883 267.098 140.656C267.096 142.169 267.094 143.683 267.093 145.196C267.09 149.154 267.08 153.113 267.069 157.072C267.058 161.121 267.054 165.17 267.049 169.219C267.038 177.146 267.021 185.073 267 193C258.09 193 249.18 193 240 193C239.996 190.896 239.992 188.793 239.988 186.625C239.97 179.648 239.926 172.671 239.868 165.695C239.834 161.467 239.809 157.241 239.804 153.013C239.8 148.928 239.772 144.844 239.727 140.759C239.714 139.206 239.709 137.653 239.714 136.1C239.798 123.673 239.798 123.673 234 113C226.199 106.858 218.789 106.101 209 107C203.226 108.626 199.225 111.064 195.938 116.125C193.409 120.75 192.861 124.506 192.795 129.766C192.78 130.791 192.78 130.791 192.765 131.837C192.733 134.093 192.708 136.349 192.684 138.605C192.663 140.171 192.642 141.736 192.621 143.301C192.565 147.419 192.516 151.537 192.468 155.655C192.418 159.858 192.362 164.061 192.307 168.264C192.199 176.509 192.098 184.754 192 193C183.09 193 174.18 193 165 193C165 142.18 165 91.36 165 39Z" fill="#020202"/>
<path d="M36 39C75.6 39 115.2 39 156 39C156 47.58 156 56.16 156 65C140.82 65 125.64 65 110 65C110 107.24 110 149.48 110 193C100.76 193 91.52 193 82 193C82 150.76 82 108.52 82 65C66.82 65 51.64 65 36 65C36 56.42 36 47.84 36 39Z" fill="#010101"/>
<path d="M761.375 37.9376C764.654 37.9685 764.654 37.9685 768 38.0001C768 45.9201 768 53.8401 768 62.0001C764.37 62.6601 760.74 63.3201 757 64.0001C751.334 65.6999 747.75 67.3681 744 72.0001C742.063 75.777 741.728 78.6349 741 83.0001C748.92 83.0001 756.84 83.0001 765 83.0001C765 91.2501 765 99.5001 765 108C756.75 108 748.5 108 740 108C740 136.05 740 164.1 740 193C731.09 193 722.18 193 713 193C713 164.95 713 136.9 713 108C709.37 108 705.74 108 702 108C702 99.7501 702 91.5001 702 83.0001C707.445 82.5051 707.445 82.5051 713 82.0001C713.248 80.2263 713.495 78.4526 713.75 76.6251C715.94 63.8457 721.262 53.9918 731.812 46.1251C740.979 40.1364 750.512 37.8351 761.375 37.9376Z" fill="#020202"/>
<path d="M1623 39C1631.58 39 1640.16 39 1649 39C1649 53.52 1649 68.04 1649 83C1657.25 83 1665.5 83 1674 83C1674 90.92 1674 98.84 1674 107C1666.08 107.33 1658.16 107.66 1650 108C1649.91 113.638 1649.83 119.274 1649.78 124.913C1649.76 126.826 1649.73 128.74 1649.7 130.653C1649.14 147.839 1649.14 147.839 1656.37 163C1663.2 168.2 1669.61 168.887 1678 170C1678 177.92 1678 185.84 1678 194C1661.28 194.581 1647.4 192.01 1634.69 180.25C1630.67 176.022 1628.25 171.341 1626 166C1625.47 164.799 1625.47 164.799 1624.93 163.574C1622.59 157.084 1622.86 150.476 1622.89 143.67C1622.89 142.538 1622.89 141.406 1622.89 140.239C1622.89 136.506 1622.89 132.772 1622.9 129.039C1622.9 126.447 1622.91 123.855 1622.91 121.263C1622.91 115.143 1622.92 109.023 1622.93 102.904C1622.94 95.9337 1622.94 88.964 1622.95 81.9942C1622.96 67.6628 1622.98 53.3314 1623 39Z" fill="black"/>
<path d="M516.604 38.5774C533.412 38.3712 551.397 40.2735 564.348 52.219C577.741 66.6573 580.781 83.0538 580.105 102.037C579.898 105.908 579.284 109.348 578 113L577 115.883C572.615 127.394 565.401 136.751 554.625 142.938C552 144 552 144 550 144C552.164 147.335 554.332 150.668 556.5 154C557.163 155.02 557.827 156.04 558.51 157.09C562.157 162.685 565.831 168.26 569.559 173.801L571.777 177.104C573.204 179.224 574.635 181.341 576.07 183.455L578.027 186.364C578.889 187.636 578.89 187.636 579.77 188.935C581 191 581 191 581 193C576.429 193.249 571.861 193.429 567.285 193.549C565.732 193.599 564.179 193.667 562.627 193.754C549.862 194.451 549.861 194.451 545.685 191.196C543.825 188.564 542.434 185.886 541 183C539.603 180.834 538.181 178.684 536.738 176.547C536.002 175.424 535.268 174.299 534.537 173.172C534.171 172.61 533.806 172.047 533.429 171.467C533.06 170.901 532.692 170.334 532.312 169.75C531.189 168.024 530.064 166.299 528.939 164.573C527.927 163.019 526.915 161.464 525.903 159.909C524.549 157.84 523.164 155.79 521.759 153.755C520 151 520 151 520 149H482V193H454V39.0002L492.5 38.7502L504.557 38.6399C509.499 38.6218 509.499 38.6218 511.829 38.6184C513.421 38.6124 515.013 38.598 516.604 38.5774ZM518.523 64.6096C516.58 64.618 514.637 64.6282 512.693 64.6399C508.998 64.6956 508.997 64.6956 505.375 64.7502L482 65.0002V123L505.562 123.125C509.034 123.151 512.507 123.178 515.979 123.189C517.412 123.192 517.412 123.193 518.816 123.196C526.914 123.278 534.353 123.447 541.125 118.375C547.774 113.092 551.414 105.969 552.406 97.5549C552.66 87.5985 550.964 80.1423 544.617 72.2893C538.391 66.4188 529.764 64.543 521.509 64.5471C520.494 64.5682 519.509 64.5892 518.523 64.6096Z" fill="#020202"/>
<path d="M1860 80.9999C1860 89.2499 1860 97.4999 1860 106C1856.04 106.66 1852.08 107.32 1848 108C1841.07 110.791 1837.78 113.385 1834.43 120.193C1832.05 126.736 1832.52 133.785 1832.49 140.656C1832.47 142.169 1832.45 143.682 1832.43 145.196C1832.39 149.154 1832.36 153.113 1832.33 157.071C1832.3 161.121 1832.25 165.17 1832.21 169.219C1832.12 177.146 1832.06 185.073 1832 193C1823.09 193 1814.18 193 1805 193C1804.93 184.08 1804.88 175.161 1804.84 166.241C1804.83 162.098 1804.81 157.955 1804.77 153.812C1804.74 149.805 1804.72 145.798 1804.72 141.791C1804.71 140.272 1804.7 138.752 1804.68 137.232C1804.53 122.195 1806.52 106.64 1817.25 95.1249C1823.9 89.122 1831.46 85.4379 1840 82.9999C1841.07 82.6081 1842.15 82.2162 1843.25 81.8124C1848.87 80.5956 1854.26 80.8816 1860 80.9999Z" fill="#020202"/>
<path d="M1440 80.9999C1440 89.2499 1440 97.4999 1440 106C1436.04 106.66 1432.08 107.32 1428 108C1421.07 110.791 1417.78 113.385 1414.43 120.193C1412.05 126.736 1412.52 133.785 1412.49 140.656C1412.47 142.169 1412.45 143.682 1412.43 145.196C1412.39 149.154 1412.36 153.113 1412.33 157.071C1412.3 161.121 1412.25 165.17 1412.21 169.219C1412.12 177.146 1412.06 185.073 1412 193C1403.09 193 1394.18 193 1385 193C1384.93 184.08 1384.88 175.161 1384.84 166.241C1384.83 162.098 1384.81 157.955 1384.77 153.812C1384.74 149.805 1384.72 145.798 1384.72 141.791C1384.71 140.272 1384.7 138.752 1384.68 137.232C1384.53 122.195 1386.52 106.64 1397.25 95.1249C1403.9 89.122 1411.46 85.4379 1420 82.9999C1421.07 82.6081 1422.15 82.2162 1423.25 81.8124C1428.87 80.5956 1434.26 80.8816 1440 80.9999Z" fill="#020202"/>
<path d="M944 80.9999C944 89.2499 944 97.4999 944 106C940.04 106.66 936.08 107.32 932 108C925.071 110.791 921.781 113.385 918.427 120.193C916.046 126.736 916.517 133.785 916.488 140.656C916.472 142.169 916.453 143.682 916.434 145.196C916.387 149.154 916.357 153.113 916.331 157.071C916.301 161.121 916.254 165.17 916.209 169.219C916.123 177.146 916.057 185.073 916 193C907.09 193 898.18 193 889 193C888.932 184.08 888.877 175.161 888.845 166.241C888.829 162.098 888.808 157.955 888.774 153.812C888.741 149.805 888.723 145.798 888.715 141.791C888.71 140.272 888.699 138.752 888.683 137.232C888.528 122.195 890.52 106.64 901.25 95.1249C907.897 89.122 915.459 85.4379 924 82.9999C925.073 82.6081 926.145 82.2162 927.25 81.8124C932.866 80.5956 938.26 80.8816 944 80.9999Z" fill="#020202"/>
<path d="M997.5 80.4375C998.542 80.4156 999.583 80.3937 1000.66 80.3711C1005.21 81.2269 1008.67 82.719 1012 86C1013.18 89.3333 1013.1 92.5249 1013.04 96.0352C1013.06 97.5458 1013.06 97.5458 1013.08 99.0869C1013.11 102.413 1013.09 105.736 1013.06 109.062C1013.07 111.375 1013.08 113.688 1013.09 116C1013.1 120.846 1013.08 125.691 1013.04 130.536C1013 136.748 1013.02 142.957 1013.07 149.169C1013.1 153.944 1013.09 158.718 1013.07 163.493C1013.07 165.784 1013.07 168.074 1013.09 170.364C1013.11 173.566 1013.08 176.763 1013.04 179.965C1013.05 180.911 1013.07 181.858 1013.08 182.833C1012.92 189.091 1012.92 189.091 1010.27 191.707C1006.06 194.443 1002.6 195.67 997.5 195.562C996.458 195.564 995.417 195.565 994.344 195.566C991 195 991 195 983 191C983 156.02 983 121.04 983 85C992.138 80.4309 992.138 80.4309 997.5 80.4375Z" fill="#A67B5B"/>
<path d="M1697.09 95.5469C1718.81 76.5135 1751.42 76.1565 1775 92C1786.02 100.915 1793.26 113.707 1794.81 127.84C1796.33 145.546 1794.53 162.422 1782.81 176.656C1771.2 189.011 1756.87 194.87 1740.12 195.42C1723.32 195.55 1708.52 191.168 1696.18 179.348C1684.33 166.602 1680.34 151.328 1680.75 134.316C1681.43 119.25 1686.64 106.444 1697.09 95.5469ZM1756.77 111.098C1745.54 104.13 1731.41 103.132 1720.31 110.875L1718 113C1713.34 116.729 1711.09 121.008 1708.95 126.48C1706.53 135.429 1706.66 145.398 1710.76 153.828L1712 156C1716.07 163.484 1721.88 167.488 1730 170C1740.93 171.226 1750.25 169.881 1759 163C1765.64 156.171 1768.09 148.963 1768.3 139.597C1768.3 138.443 1768.3 138.443 1768.31 137.313C1768.33 134.499 1768.21 131.818 1768 129C1766.13 122.055 1762.64 115.48 1756.77 111.098Z" fill="#020202"/>
<path d="M782.094 95.5471C803.813 76.5137 836.423 76.1567 860 92.0002C871.019 100.915 878.256 113.707 879.814 127.84C881.334 145.546 879.535 162.422 867.812 176.656C856.202 189.012 841.871 194.87 825.122 195.42C808.324 195.55 793.517 191.168 781.184 179.348C769.329 166.602 765.336 151.328 765.754 134.317C766.426 119.25 771.638 106.444 782.094 95.5471ZM841.77 111.098C830.536 104.13 816.411 103.132 805.312 110.875L803 113C798.339 116.729 796.085 121.008 793.953 126.481C791.53 135.429 791.656 145.398 795.758 153.828L797 156C801.065 163.484 806.883 167.488 815 170C825.935 171.226 835.251 169.881 844 163C850.635 156.171 853.092 148.963 853.296 139.597C853.305 138.444 853.304 138.443 853.312 137.313C853.334 134.499 853.213 131.818 853 129C851.131 122.055 847.638 115.48 841.77 111.098Z" fill="#020202"/>
<path d="M1224 81.0001C1227.56 82.3279 1229.36 83.3552 1232 86.0001C1232.26 87.8592 1232.26 87.8592 1232.27 90.1619C1232.29 91.4699 1232.29 91.4699 1232.3 92.8044C1232.31 93.7634 1232.31 94.7224 1232.31 95.7105C1232.32 97.2229 1232.32 97.2229 1232.33 98.7658C1232.36 102.112 1232.36 105.458 1232.37 108.805C1232.38 111.124 1232.39 113.443 1232.4 115.763C1232.41 120.63 1232.42 125.497 1232.43 130.365C1232.43 136.609 1232.47 142.852 1232.51 149.095C1232.54 153.887 1232.55 158.679 1232.55 163.471C1232.56 165.774 1232.57 168.076 1232.59 170.378C1232.62 173.596 1232.61 176.813 1232.6 180.031C1232.61 180.986 1232.63 181.941 1232.64 182.925C1232.57 189.393 1232.57 189.393 1229.59 192.561C1225.49 194.838 1223.05 195.217 1218.31 195.313C1217.11 195.35 1215.91 195.387 1214.68 195.426C1211 195 1211 195 1204 191C1204 156.02 1204 121.04 1204 85.0001C1211.64 80.6333 1215.55 80.0771 1224 81.0001Z" fill="#A67B5B"/>
<path d="M1143.13 80.6875C1144.22 80.6501 1145.32 80.6127 1146.45 80.5742C1150 81 1150 81 1158 85C1158 119.98 1158 154.96 1158 191C1150.03 195.554 1150.03 195.554 1144.56 195.5C1143.51 195.51 1142.46 195.521 1141.38 195.531C1138.27 195.043 1136.52 194.386 1133.79 192.967C1132.72 192.417 1132.72 192.417 1131.63 191.856C1131.09 191.574 1130.55 191.291 1130 191C1129.88 177.379 1129.8 163.758 1129.74 150.136C1129.71 143.812 1129.68 137.487 1129.62 131.163C1129.57 125.061 1129.54 118.96 1129.53 112.859C1129.52 110.529 1129.5 108.198 1129.47 105.868C1129.44 102.61 1129.43 99.3519 1129.43 96.0928C1129.41 95.1253 1129.4 94.1579 1129.38 93.1611C1129.43 86.6089 1129.43 86.6089 1132.41 83.4317C1136.33 81.2647 1138.6 80.7871 1143.13 80.6875Z" fill="#A67B5B"/>
<path d="M1070.12 80.6875C1071.22 80.6501 1072.32 80.6127 1073.45 80.5742C1076.74 80.9691 1078.36 81.532 1081.22 83.0266C1081.93 83.394 1082.64 83.7614 1083.37 84.14C1083.91 84.4238 1084.45 84.7076 1085 85C1085.12 98.6211 1085.2 112.242 1085.26 125.864C1085.29 132.188 1085.32 138.513 1085.38 144.837C1085.43 150.939 1085.46 157.04 1085.47 163.141C1085.48 165.471 1085.5 167.802 1085.53 170.132C1085.56 173.39 1085.57 176.648 1085.57 179.907C1085.59 180.875 1085.6 181.842 1085.62 182.839C1085.57 189.391 1085.57 189.391 1082.59 192.568C1076.52 195.927 1069.38 196.173 1062.62 194.363C1060.55 193.477 1058.61 192.611 1057 191C1056.89 189.643 1056.86 188.281 1056.85 186.92C1056.84 186.041 1056.83 185.162 1056.82 184.257C1056.82 183.285 1056.81 182.313 1056.81 181.311C1056.8 180.293 1056.79 179.276 1056.78 178.227C1056.76 174.843 1056.74 171.458 1056.73 168.074C1056.72 166.922 1056.72 165.769 1056.71 164.582C1056.68 158.482 1056.66 152.383 1056.65 146.283C1056.63 139.971 1056.59 133.66 1056.54 127.348C1056.5 122.505 1056.49 117.662 1056.49 112.82C1056.48 110.492 1056.46 108.165 1056.44 105.838C1056.41 102.584 1056.41 99.3311 1056.42 96.0769C1056.4 95.111 1056.38 94.1452 1056.37 93.15C1056.43 86.6089 1056.43 86.6089 1059.41 83.4327C1063.33 81.2637 1065.6 80.7871 1070.12 80.6875Z" fill="#A67B5B"/>
<path d="M1119 101C1119.66 101 1120.32 101 1121 101C1121.3 106.421 1121.52 111.838 1121.66 117.266C1121.72 119.104 1121.8 120.942 1121.91 122.779C1122.49 133.319 1122.32 141.085 1115.26 149.395C1113.71 151.098 1112.13 152.757 1110.51 154.395C1108.1 156.958 1106.11 159.765 1104.06 162.625C1101.3 166.427 1098.39 169.737 1095 173C1091.49 161.359 1090.87 142.238 1095.2 130.835C1098.12 125.841 1101.95 121.883 1106.11 117.913C1109.26 114.721 1111.71 111.055 1114.25 107.375C1115.78 105.187 1117.33 103.091 1119 101Z" fill="#C19A6B"/>
<path d="M1193 101C1193.33 101 1193.66 101 1194 101C1197.04 141.017 1197.04 141.017 1186.5 153.312C1184.38 155.641 1182.21 157.879 1179.94 160.062C1177.24 162.754 1175.25 165.654 1173.12 168.812C1171.38 171.332 1171.38 171.332 1170 173C1169.34 173 1168.68 173 1168 173C1167.8 167.647 1167.66 162.297 1167.56 156.942C1167.52 155.125 1167.47 153.308 1167.4 151.492C1166.72 133.316 1166.72 133.316 1173.92 125.155C1174.95 124.088 1174.95 124.088 1176 123C1176.93 121.813 1177.84 120.614 1178.72 119.398C1181.15 116.265 1183.57 113.132 1186 110C1186.71 109.068 1187.42 108.136 1188.16 107.176C1188.79 106.355 1189.41 105.534 1190.06 104.688C1190.61 103.969 1191.16 103.251 1191.72 102.512C1192.14 102.013 1192.57 101.514 1193 101Z" fill="#C19A6B"/>
<path d="M1046 101C1046.33 101 1046.66 101 1047 101C1047.3 106.403 1047.52 111.801 1047.66 117.211C1047.72 119.043 1047.8 120.874 1047.91 122.703C1048.64 135.86 1046.83 143.603 1038.06 153.605C1037.53 154.189 1037 154.772 1036.46 155.373C1034.56 157.49 1032.91 159.746 1031.27 162.062C1030.78 162.733 1030.29 163.403 1029.78 164.094C1028.8 165.424 1027.83 166.757 1026.86 168.094C1025.62 169.766 1024.32 171.389 1023 173C1022.34 173 1021.68 173 1021 173C1018.72 133.136 1018.72 133.136 1026.19 124.625C1027.81 122.926 1029.47 121.321 1031.21 119.747C1034.66 116.381 1037.35 112.377 1040.19 108.5C1041.28 107.048 1042.38 105.599 1043.48 104.156C1043.94 103.546 1044.41 102.936 1044.88 102.307C1045.25 101.875 1045.62 101.444 1046 101Z" fill="#C19A6B"/>
<path d="M1877.09 95.5469C1898.81 76.5135 1931.42 76.1565 1955 92C1967.09 101.783 1973.1 114.798 1975 130V147H1889C1894.77 159.997 1894.77 159.997 1905 167L1907.29 168.117C1914.35 170.417 1924.31 170.186 1931.13 167.313C1935.27 165.082 1939.85 162.297 1942 158H1972C1967.01 172.972 1959.03 182.639 1945 190C1936.66 194.096 1928.46 195.375 1919.25 195.313C1918.38 195.307 1917.5 195.301 1916.6 195.295C1900.97 195.004 1887.58 190.269 1876.18 179.348C1864.33 166.602 1860.34 151.328 1860.75 134.316C1861.43 119.25 1866.64 106.444 1877.09 95.5469ZM1935 110C1926.02 104.805 1915.34 104.125 1905.56 107.563C1898.69 110.754 1894.79 115.023 1892 122H1945C1942.05 116.109 1940.25 113.537 1935 110Z" fill="#030303"/>
<path d="M1276.09 95.5469C1297.81 76.5135 1330.42 76.1565 1354 92C1366.09 101.783 1372.1 114.798 1374 130V147H1288C1293.77 159.997 1293.77 159.997 1304 167L1306.29 168.117C1313.35 170.417 1323.31 170.186 1330.13 167.313C1334.27 165.082 1338.85 162.297 1341 158H1371C1366.01 172.972 1358.03 182.639 1344 190C1335.66 194.096 1327.46 195.375 1318.25 195.313C1317.38 195.307 1316.5 195.301 1315.6 195.295C1299.97 195.004 1286.58 190.269 1275.18 179.348C1263.33 166.602 1259.34 151.328 1259.75 134.316C1260.43 119.25 1265.64 106.444 1276.09 95.5469ZM1334 110C1325.02 104.805 1314.34 104.125 1304.56 107.563C1297.69 110.754 1293.79 115.023 1291 122H1344C1341.05 116.109 1339.25 113.537 1334 110Z" fill="#030303"/>
<path d="M600.094 95.5471C621.813 76.5137 654.423 76.1567 678 92.0002C690.093 101.784 696.1 114.799 698 130V147H612C617.774 159.997 617.774 159.997 628 167L630.289 168.117C637.351 170.417 647.307 170.186 654.125 167.313C658.268 165.082 662.851 162.297 665 158H695C690.009 172.972 682.029 182.64 668 190C659.661 194.096 651.463 195.376 642.25 195.313C641.376 195.307 640.502 195.301 639.602 195.295C623.974 195.004 610.579 190.269 599.184 179.348C587.329 166.602 583.336 151.328 583.754 134.317C584.426 119.25 589.638 106.444 600.094 95.5471ZM658 110C649.021 104.805 638.34 104.125 628.562 107.563C621.692 110.755 617.791 115.023 615 122H668C665.054 116.109 663.246 113.537 658 110Z" fill="#030303"/>
<path d="M292.094 95.5471C313.813 76.5137 346.423 76.1567 370 92.0002C382.093 101.784 388.1 114.799 390 130V147H304C309.774 159.997 309.774 159.997 320 167L322.289 168.117C329.351 170.417 339.307 170.186 346.125 167.313C350.268 165.082 354.851 162.297 357 158H387C382.009 172.972 374.029 182.64 360 190C351.661 194.096 343.463 195.376 334.25 195.313C333.376 195.307 332.502 195.301 331.602 195.295C315.974 195.004 302.579 190.269 291.184 179.348C279.329 166.602 275.336 151.328 275.754 134.317C276.426 119.25 281.638 106.444 292.094 95.5471ZM350 110C341.021 104.805 330.34 104.125 320.562 107.563C313.692 110.755 309.791 115.023 307 122H360C357.054 116.109 355.246 113.537 350 110Z" fill="#030303"/>
</svg>
